Coordinates
version=1
nRows=5
nColumns=40
inDegrees=yes

Units are S.I. units (second, meters, Newtons, ...)
Angles are in degrees.

endheader
time	pelvis_tilt	pelvis_list	pelvis_rotation	pelvis_tx	pelvis_ty	pelvis_tz	hip_flexion_r	hip_adduction_r	hip_rotation_r	knee_angle_r	knee_angle_r_beta	ankle_angle_r	subtalar_angle_r	mtp_angle_r	hip_flexion_l	hip_adduction_l	hip_rotation_l	knee_angle_l	knee_angle_l_beta	ankle_angle_l	subtalar_angle_l	mtp_angle_l	lumbar_extension	lumbar_bending	lumbar_rotation	arm_flex_r	arm_add_r	arm_rot_r	elbow_flex_r	pro_sup_r	wrist_flex_r	wrist_dev_r	arm_flex_l	arm_add_l	arm_rot_l	elbow_flex_l	pro_sup_l	wrist_flex_l	wrist_dev_l
      1.49000000	      0.91559927	      0.11188965	     -5.80340451	      0.11640396	      0.88412343	     -1.01085605	     -8.92982165	     -1.86648837	    -10.28938469	    -30.25106632	     -0.52798071	      5.29651511	     -0.61887546	     -4.31015693	     18.80845374	     -0.76835771	     12.40820175	    -15.33421882	     -0.26763261	     -4.50872605	      0.77254605	     -7.77545535	     -7.70209556	     -1.09034861	      6.73964454	     13.17866684	     -8.21994583	     20.31236723	     20.32663834	     89.95437384	      0.00000000	      0.00000000	     -5.46650946	      7.05321001	    -17.61285415	     14.87375192	     89.95437384	      0.00000000	      0.00000000
      1.50000000	      0.77983934	      0.59806099	     -5.76744231	      0.12558539	      0.88528367	     -1.01191452	     -8.17070792	     -2.65875473	    -10.47471905	    -31.99167434	     -0.55836005	      3.21677931	     -1.50596795	     -3.73460342	     18.36884567	     -1.44790496	     12.27415239	    -15.37461813	     -0.26833771	     -3.79848787	      1.10720067	     -7.54170574	     -7.38730417	     -1.59745860	      6.39377186	     12.83864300	     -8.02008791	     20.29128721	     20.02935523	     89.95437384	      0.00000000	      0.00000000	     -5.19955956	      7.15490500	    -17.94949145	     14.87354173	     89.95437384	      0.00000000	      0.00000000
      1.51000000	      0.79501638	      0.75123584	     -5.74326684	      0.13444962	      0.88671528	     -1.01275140	     -7.43718320	     -3.10855054	    -10.64311915	    -33.93767552	     -0.59232418	      1.25685056	     -2.16692712	     -3.26057840	     17.70022406	     -1.78401544	     12.03288583	    -15.34184207	     -0.26776566	     -3.26954674	      1.15277426	     -7.35760553	     -7.31973096	     -1.76638052	      6.11323530	     12.59168361	     -7.87068748	     20.27593351	     19.65041938	     89.95437384	      0.00000000	      0.00000000	     -4.82493442	      7.18246250	    -18.14666601	     14.86367340	     89.95437384	      0.00000000	      0.00000000
      1.52000000	      0.63036989	      1.21901661	     -5.58999693	      0.14340770	      0.88787115	     -1.01426940	     -6.34656375	     -3.91078718	    -10.89273825	    -36.03777834	     -0.62897789	     -1.47710893	     -3.50182376	     -2.30630300	     17.10131494	     -2.56846573	     11.84798557	    -14.93231509	     -0.26061806	     -2.96200311	      1.58764144	     -6.95626152	     -6.99819485	     -2.18230130	      5.71660806	     12.20263870	     -7.80928000	     20.20839666	     19.48056331	     89.95437384	      0.00000000	      0.00000000	     -4.46938940	      7.33342386	    -18.53230976	     15.06518106	     89.95437384	      0.00000000	      0.00000000
      1.53000000	      0.40755223	      1.49232051	     -5.58042699	      0.15197749	      0.88879705	     -1.01541186	     -5.03758152	     -4.47433134	    -10.84288135	    -38.21458870	     -0.66697040	     -4.12454282	     -5.01379715	     -0.94809986	     16.59178940	     -3.07034325	     11.67180372	    -14.60049434	     -0.25482670	     -2.54339563	      2.05050708	     -6.47259299	     -6.65368778	     -2.41676399	      5.40815711	     11.87365892	     -7.73532536	     20.19490080	     19.28139517	     89.95437384	      0.00000000	      0.00000000	     -4.06686155	      7.45842625	    -18.99528350	     15.18524773	     89.95437384	      0.00000000	      0.00000000
